<svg width="118" height="14" viewBox="0 0 118 14" fill="none" xmlns="http://www.w3.org/2000/svg">
<path d="M0.286133 13.0078V0.703126H9.08461V2.21485H2.38195V6.04688H8.49146V7.52344H2.38195V11.4961H9.08461V13.0078H0.286133ZM11.7795 13.0078V0.703126H14.251L18.9369 8.89453L23.6031 0.703126H26.0746V13.0078H23.9788V3.91992L19.7476 11.25H18.1263L13.8753 3.9375V13.0078H11.7795ZM29.0839 13.0078V0.703126H37.8823V2.21485H31.1797V6.04688H37.2892V7.52344H31.1797V11.4961H37.8823V13.0078H29.0839ZM40.5772 13.0078V0.703126H45.3423C46.4366 0.703126 47.3333 0.867219 48.0312 1.19532C48.743 1.52341 49.2709 1.96875 49.613 2.53125C49.956 3.08206 50.127 3.6973 50.127 4.37695C50.127 5.1387 49.8967 5.83005 49.435 6.45117C48.9872 7.0723 48.2823 7.51755 47.3194 7.78711L50.2654 13.0078H47.8335L45.1445 8.05078H42.6731V13.0078H40.5772ZM42.6731 6.64453H45.2236C46.1727 6.64453 46.8647 6.43949 47.2997 6.0293C47.7485 5.61911 47.9719 5.08597 47.9719 4.42969C47.9719 3.77341 47.7544 3.25195 47.3194 2.86524C46.8845 2.46683 46.1796 2.26758 45.2039 2.26758H42.6731V6.64453ZM58.8148 13.2188C57.5099 13.2188 56.37 12.9551 55.3943 12.4277C54.4195 11.9004 53.6613 11.1621 53.1205 10.2129C52.5807 9.26367 52.3099 8.15625 52.3099 6.89063C52.3099 5.63669 52.5867 4.52927 53.1403 3.56836C53.6939 2.60745 54.4788 1.85739 55.4931 1.31836C56.5213 0.767551 57.7343 0.492188 59.1312 0.492188C60.7129 0.492188 62.0317 0.83206 63.0855 1.51172C64.1404 2.19138 64.8255 3.12891 65.1418 4.32422H62.7692C62.5586 3.66794 62.1434 3.15237 61.5235 2.77735C60.9047 2.40232 60.1069 2.21485 59.1312 2.21485C57.6819 2.21485 56.541 2.63083 55.7106 3.46289C54.8802 4.29495 54.465 5.44333 54.465 6.90821C54.465 8.37308 54.8743 9.51565 55.6909 10.3359C56.5084 11.1562 57.5959 11.5664 58.9532 11.5664C60.3244 11.5664 61.3525 11.2207 62.0376 10.5293C62.7366 9.83786 63.1448 8.918 63.2635 7.76953H59.5068V6.32813H65.3791V13.0078H63.4612L63.2832 11.1973C62.8226 11.8418 62.2423 12.3398 61.5433 12.6914C60.8454 13.043 59.9359 13.2188 58.8148 13.2188ZM68.1204 13.0078V0.703126H76.9189V2.21485H70.2162V6.04688H76.3258V7.52344H70.2162V11.4961H76.9189V13.0078H68.1204ZM79.6138 13.0078V0.703126H81.7096L88.6496 9.9668V0.703126H90.7454V13.0078H88.6496L81.7096 3.74414V13.0078H79.6138ZM99.9215 13.2188C98.5503 13.2188 97.364 12.9551 96.3626 12.4277C95.374 11.8887 94.6088 11.1445 94.069 10.1953C93.5283 9.23441 93.2584 8.12698 93.2584 6.87305C93.2584 5.60742 93.5283 4.5 94.069 3.55078C94.6088 2.58988 95.374 1.83982 96.3626 1.30078C97.364 0.76175 98.5503 0.492188 99.9215 0.492188C101.543 0.492188 102.868 0.843751 103.896 1.54688C104.924 2.25 105.576 3.23438 105.853 4.5H103.52C103.335 3.78519 102.94 3.2168 102.334 2.79492C101.727 2.37305 100.916 2.16211 99.9017 2.16211C98.5177 2.16211 97.4233 2.58398 96.6196 3.42773C95.8149 4.25979 95.4135 5.40818 95.4135 6.87305C95.4135 8.32614 95.8149 9.46872 96.6196 10.3008C97.4233 11.1328 98.5177 11.5488 99.9017 11.5488C100.916 11.5488 101.727 11.3496 102.334 10.9512C102.94 10.5528 103.335 10.0078 103.52 9.31641H105.853C105.576 10.5352 104.924 11.4902 103.896 12.1816C102.868 12.8731 101.543 13.2188 99.9215 13.2188ZM108.354 13.0078V0.703126H117.153V2.21485H110.45V6.04688H116.56V7.52344H110.45V11.4961H117.153V13.0078H108.354Z" fill="white"/>
</svg>
